<?xml version="1.0" standalone="no"?>
<!DOCTYPE svg PUBLIC "-//W3C//DTD SVG 20010904//EN"
 "http://www.w3.org/TR/2001/REC-SVG-20010904/DTD/svg10.dtd">
<svg version="1.0" xmlns="http://www.w3.org/2000/svg"
 width="16.000000pt" height="16.000000pt" viewBox="0 0 16.000000 16.000000"
 preserveAspectRatio="xMidYMid meet">
<metadata>
Created by potrace 1.11, written by Peter Selinger 2001-2013
</metadata>
<g transform="translate(0.000000,16.000000) scale(0.002000,-0.002000)"
fill="#000000" stroke="none">
<path d="M3468 7245 c-2 -2 -27 -6 -55 -9 -70 -7 -167 -24 -233 -42 -76 -21
-244 -78 -250 -84 -6 -7 -66 -32 -77 -32 -4 0 -19 -8 -33 -17 -14 -9 -38 -23
-55 -31 -16 -8 -36 -21 -43 -27 -7 -7 -18 -13 -24 -13 -6 0 -47 -26 -92 -57
-102 -72 -86 -59 -186 -145 -76 -66 -104 -93 -196 -193 -27 -29 -147 -191
-171 -230 -90 -148 -195 -388 -217 -496 -3 -13 -14 -67 -25 -119 -24 -114 -32
-192 -33 -325 -1 -95 7 -225 16 -271 2 -12 7 -39 10 -60 7 -47 44 -201 55
-229 5 -11 23 -58 40 -105 40 -104 83 -194 133 -279 21 -34 38 -66 38 -70 0
-5 9 -16 20 -26 11 -10 20 -24 20 -32 0 -7 4 -13 8 -13 4 0 16 -13 25 -30 10
-16 23 -35 30 -42 7 -7 19 -22 27 -34 20 -29 101 -123 121 -142 15 -13 15 -19
-2 -76 -39 -128 -53 -233 -53 -411 -1 -131 10 -290 20 -307 3 -4 7 -22 9 -39
14 -108 110 -335 187 -439 43 -59 165 -180 181 -180 10 0 0 -68 -13 -85 -4 -5
-11 -23 -15 -40 -10 -35 -10 -36 -18 -55 -20 -48 -49 -198 -53 -270 -1 -30 -3
-55 -4 -55 -1 0 -2 -21 -3 -48 -1 -26 1 -47 4 -47 3 0 5 -10 4 -23 -6 -55 83
-322 115 -347 4 -3 13 -15 19 -28 19 -35 38 -57 126 -146 44 -45 100 -94 123
-110 24 -16 44 -32 46 -35 2 -3 -5 -33 -15 -66 -11 -33 -22 -71 -25 -85 -3
-14 -9 -42 -14 -63 -11 -51 -10 -189 1 -235 59 -226 208 -373 454 -445 28 -8
52 -15 55 -15 5 0 33 -5 105 -17 40 -7 206 -7 236 -1 13 3 40 8 59 11 120 17
254 71 355 143 77 54 205 191 205 218 0 8 4 14 9 14 7 0 54 100 56 120 1 3 6
28 13 55 13 51 23 191 14 200 -2 2 -6 19 -7 37 -2 18 -6 43 -9 55 -3 13 -8 31
-10 40 -3 10 -12 38 -20 62 -9 25 -13 48 -9 52 5 4 46 28 91 54 46 25 89 50
95 56 7 5 34 24 61 41 59 38 195 173 216 214 8 16 18 31 21 34 11 9 57 116 69
161 30 109 27 242 -8 408 -10 43 -8 48 28 100 72 107 117 222 135 346 13 92
17 105 34 105 56 0 300 106 357 155 16 14 32 25 37 25 4 0 15 8 25 18 10 9 43
40 73 67 72 67 126 134 182 228 26 43 47 80 47 82 0 3 9 24 19 48 11 23 25 62
32 87 7 25 14 50 15 55 26 86 35 164 34 275 -1 95 -2 109 -15 206 -5 39 -3 53
9 63 9 8 16 20 16 27 0 8 4 14 8 14 5 0 15 12 23 28 7 15 27 50 43 77 15 28
29 55 30 60 1 6 12 30 23 55 81 175 118 364 117 605 -1 143 -4 185 -20 265 -3
19 -8 44 -9 55 -2 11 -4 20 -5 20 -1 0 -3 10 -5 21 -33 171 -180 464 -314 623
-107 128 -277 276 -406 354 -93 57 -337 160 -401 170 -11 1 -24 6 -30 10 -7 4
-29 9 -50 12 -81 10 -103 21 -171 86 -82 78 -198 171 -273 219 -30 19 -56 38
-58 42 -2 5 -9 8 -16 8 -7 0 -34 14 -62 31 -27 18 -50 31 -51 30 -2 0 -31 12
-65 27 -118 53 -274 103 -383 121 -33 5 -76 13 -95 17 -37 6 -376 15 -382 9z
m332 -149 c344 -36 693 -185 933 -398 18 -16 34 -28 38 -28 4 0 9 -6 12 -14 3
-7 -34 16 -83 53 -100 75 -198 132 -317 184 -82 36 -210 82 -255 91 -13 3 -34
8 -48 11 -75 20 -281 44 -385 46 -32 1 -214 -12 -235 -16 -14 -3 -41 -8 -60
-11 -19 -3 -62 -12 -95 -21 -33 -8 -69 -17 -80 -20 -40 -9 -52 -13 -185 -65
-58 -23 -107 -44 -110 -47 -3 -3 -21 -14 -40 -23 -62 -31 -169 -98 -211 -132
-14 -12 -43 -34 -65 -51 -98 -76 -334 -339 -334 -373 0 -6 -4 -12 -8 -14 -13
-5 -80 -121 -122 -210 -60 -130 -120 -318 -135 -428 -3 -25 -9 -58 -12 -75 -4
-16 -7 -113 -7 -215 0 -167 4 -228 20 -312 3 -15 6 -30 6 -33 -1 -10 58 -212
73 -255 29 -82 116 -252 173 -339 32 -47 59 -88 62 -91 23 -23 41 -50 34 -50
-5 0 -25 22 -44 48 -19 26 -38 49 -41 52 -22 17 -128 189 -173 279 -123 248
-180 490 -179 766 0 81 9 213 17 251 2 12 7 39 10 60 15 93 86 319 113 361 8
13 13 23 10 23 -10 0 73 150 132 240 81 124 214 275 318 361 101 83 258 189
281 189 6 0 12 3 14 8 2 4 37 23 78 43 105 50 286 111 365 122 12 2 25 6 30 9
11 6 125 22 167 23 14 0 29 2 31 5 8 7 229 4 307 -4z m1120 -551 c19 -3 47 -8
62 -10 15 -2 35 -6 45 -9 10 -3 29 -7 43 -10 14 -2 63 -17 110 -32 47 -15 87
-28 90 -29 3 -1 32 -14 65 -29 33 -15 77 -35 98 -43 20 -8 37 -19 37 -23 0 -5
10 -12 21 -15 85 -27 284 -214 378 -354 75 -113 152 -271 165 -341 1 -3 4 -10
8 -16 4 -6 9 -21 12 -35 3 -13 14 -63 25 -110 33 -141 43 -234 44 -399 1 -117
-7 -226 -19 -295 -4 -16 -7 -41 -9 -55 -6 -47 -27 -145 -33 -155 -3 -5 -7 -16
-8 -25 -3 -18 -9 -40 -17 -60 -7 -20 -30 -92 -33 -105 -1 -5 -9 -26 -18 -45
l-17 -35 7 35 c4 19 9 37 13 40 3 3 7 10 8 15 1 6 13 55 27 110 14 55 28 116
31 135 3 19 7 46 10 60 18 98 27 435 14 500 -4 19 -10 60 -14 90 -21 176 -122
462 -206 582 -11 14 -19 31 -19 36 0 6 -4 12 -8 14 -5 2 -22 21 -38 43 -40 55
-70 89 -130 146 -62 60 -165 138 -181 139 -7 0 -13 4 -13 9 0 7 -211 111 -235
115 -5 1 -36 12 -68 24 -32 12 -70 23 -83 24 -13 1 -24 5 -24 9 0 3 -6 6 -12
6 -7 0 -38 5 -68 11 -108 22 -147 26 -280 25 -149 -1 -212 -7 -280 -27 -25 -7
-47 -14 -50 -14 -12 0 -96 -25 -105 -30 -5 -4 -15 -7 -22 -8 -17 -3 -140 -63
-198 -98 -136 -81 -295 -228 -398 -368 -56 -77 -70 -89 -31 -25 136 216 335
402 544 507 57 29 233 97 253 98 4 0 20 3 35 6 58 13 79 17 132 22 30 4 56 8
58 9 6 5 248 -3 282 -10z m-955 -1579 c38 -4 113 -15 138 -20 73 -15 281 -85
285 -98 2 -4 8 -8 14 -8 25 0 208 -104 216 -122 2 -4 10 -8 17 -8 7 0 15 -3
17 -7 2 -5 28 -27 58 -50 72 -55 197 -189 260 -280 27 -40 48 -73 45 -73 -2 0
-30 33 -62 73 -55 69 -107 123 -189 197 -49 44 -159 120 -173 120 -6 0 -11 4
-11 9 0 10 -164 91 -255 125 -61 22 -158 49 -220 61 -173 31 -445 25 -572 -14
-18 -5 -33 -8 -33 -6 0 2 -45 -12 -101 -30 -105 -36 -309 -132 -309 -147 0 -4
-5 -8 -11 -8 -36 0 -266 -204 -349 -310 -19 -25 -38 -46 -42 -48 -5 -2 -8 -8
-8 -13 0 -5 -17 -35 -37 -66 -48 -74 -84 -143 -76 -143 3 0 -1 -8 -10 -17 -17
-20 -94 -241 -103 -298 -3 -21 -8 -47 -10 -59 -17 -81 -23 -292 -11 -401 8
-71 34 -194 61 -279 8 -27 11 -45 6 -40 -21 22 -84 249 -96 349 -3 28 -8 59
-10 70 -2 11 -4 65 -4 120 0 137 8 206 36 324 8 36 17 73 19 81 2 8 15 48 30
88 74 203 175 363 330 518 183 184 392 305 639 370 83 22 110 27 205 39 18 2
35 5 37 7 4 5 230 0 279 -6z m1100 -120 c237 -17 444 -113 610 -281 69 -70
159 -198 152 -216 -1 -3 4 -13 11 -21 15 -19 51 -121 58 -168 15 -90 12 -270
-5 -342 -40 -168 -129 -326 -256 -453 -69 -70 -178 -154 -226 -175 -13 -6 -43
-21 -65 -34 -23 -13 -50 -25 -60 -28 -11 -3 -28 -9 -39 -12 -11 -4 13 10 54
30 41 20 80 41 85 46 6 5 33 23 61 41 67 43 202 178 252 252 34 51 84 138 88
155 1 3 7 19 14 35 24 62 31 81 35 105 3 14 9 47 15 75 9 50 7 240 -3 283 -3
12 -8 32 -11 43 -33 151 -147 329 -286 444 -76 64 -290 173 -319 163 -3 -1
-14 3 -25 9 -11 6 -38 14 -60 17 -22 4 -48 9 -58 12 -10 3 -64 7 -120 9 -56 2
-104 5 -107 6 -7 3 102 14 120 12 8 -1 47 -4 85 -7z m-221 -4 c2 -4 -5 -9 -17
-9 -17 -2 -19 0 -7 7 18 12 18 12 24 2z m194 -577 c-3 -3 -9 2 -12 12 -6 14
-5 15 5 6 7 -7 10 -15 7 -18z m-698 -349 c91 -24 113 -32 180 -65 80 -40 150
-83 150 -93 0 -5 5 -8 11 -8 6 0 44 -33 85 -74 76 -77 146 -176 184 -261 12
-27 26 -59 31 -70 5 -11 12 -30 14 -42 3 -13 7 -32 10 -43 20 -79 26 -132 27
-219 0 -85 -9 -173 -22 -205 -6 -13 -7 -2 -3 29 19 142 -2 333 -47 440 -45
110 -93 194 -140 249 -48 56 -115 122 -155 153 -88 68 -246 146 -319 157 -21
4 -43 9 -48 12 -30 19 -265 24 -343 8 -142 -30 -238 -70 -361 -151 -66 -43
-177 -154 -222 -220 -19 -29 -37 -53 -39 -53 -5 0 48 92 62 106 5 6 21 26 35
44 46 61 168 170 189 170 6 0 11 4 11 9 0 5 10 13 23 17 12 4 24 10 27 14 16
25 208 95 293 106 23 4 44 8 47 11 10 10 266 -7 320 -21z m-657 -965 c15 -1
27 -4 27 -8 0 -5 -33 -7 -73 -6 -187 4 -403 -72 -574 -203 -95 -73 -180 -166
-222 -244 -88 -162 -112 -253 -107 -414 4 -136 8 -166 39 -251 30 -86 96 -204
137 -245 8 -9 26 -29 40 -45 17 -21 11 -17 -19 10 -108 100 -197 270 -226 431
-20 109 -7 290 27 372 6 15 12 33 14 40 6 29 76 159 107 197 39 48 157 165
167 165 4 0 20 11 36 25 16 14 34 25 41 25 6 0 13 4 15 8 4 11 145 78 183 88
17 4 35 10 40 15 22 16 216 46 285 42 19 0 47 -2 63 -2z m78 -19 c-13 -2 -27
0 -32 5 -6 6 3 7 23 4 28 -4 29 -6 9 -9z m1236 -154 c-3 -7 -5 -2 -5 12 0 14
2 19 5 13 2 -7 2 -19 0 -25z m-677 -92 c164 -15 319 -85 427 -192 40 -39 73
-78 73 -87 0 -10 4 -17 8 -17 10 0 36 -59 54 -125 15 -51 16 -161 4 -225 -4
-19 -28 -77 -53 -129 -37 -74 -63 -110 -122 -171 -71 -71 -199 -166 -209 -155
-3 3 -3 6 -1 8 46 29 109 76 125 93 12 13 25 20 28 17 3 -4 6 -2 6 3 0 5 16
27 36 49 74 83 130 189 152 290 29 137 -16 302 -114 413 -91 104 -246 186
-394 208 -19 3 -44 7 -55 9 -11 2 -37 4 -57 4 -21 1 -38 5 -38 10 0 8 21 7
130 -3z m-177 -3 c-7 -2 -21 -2 -30 0 -10 3 -4 5 12 5 17 0 24 -2 18 -5z
m-248 -1007 c76 -12 150 -29 160 -38 5 -4 15 -8 22 -8 55 0 263 -142 263 -179
0 -5 7 -17 16 -25 8 -9 29 -55 46 -103 48 -139 52 -257 12 -366 -8 -23 -16
-48 -16 -54 -1 -7 -6 -13 -11 -13 -6 0 -7 -3 -4 -6 4 -4 -2 -19 -13 -34 -11
-16 -20 -31 -20 -36 0 -20 -102 -131 -165 -180 -64 -51 -219 -124 -232 -110
-3 3 0 6 8 6 16 0 140 62 165 82 73 59 174 174 174 196 0 6 4 12 8 14 10 4 57
128 68 178 11 52 11 138 1 194 -8 49 -67 172 -103 215 -59 73 -169 171 -192
171 -6 0 -12 4 -14 8 -8 19 -176 79 -235 84 -17 1 -30 5 -28 9 5 7 21 6 90 -5z
m595 -96 c0 -8 -83 -50 -99 -50 -4 0 80 52 97 59 1 1 2 -3 2 -9z m-1320 -154
c0 -2 -7 -7 -16 -10 -8 -3 -12 -2 -9 4 6 10 25 14 25 6z m-42 -51 c-6 -14 -15
-25 -20 -25 -5 0 -1 11 8 25 9 14 18 25 20 25 2 0 -2 -11 -8 -25z m-54 -114
c-14 -40 -28 -94 -32 -119 -8 -59 -7 -184 3 -237 17 -95 95 -194 213 -273 28
-19 52 -37 52 -39 0 -5 -12 2 -85 51 -103 69 -159 137 -203 248 -15 37 -7 232
12 301 17 63 55 151 61 145 3 -2 -7 -37 -21 -77z"/>
</g>
</svg>
