<svg xmlns="http://www.w3.org/2000/svg" xmlns:xlink="http://www.w3.org/1999/xlink" version="1.1" x="0px" y="0px" viewBox="0 0 100 96" enable-background="new 0 0 100 100" xml:space="preserve" style="fill:#d81b60;"><g><path d="M73.392,21.032c-3.223-3.631-7.469-5.791-11.874-6.429C52.845,5.318,39.312,5.069,30,13.333c-9.464,8.4-11,23-0.795,33.718   c0.254,0.267,0.124,0.145-0.005,0.016c-1.845,5.375-1.24,14.216,4.145,18.01c-0.156-0.107-0.229-0.155,0.114,0.089   c-3,7.167-1.303,12.318,4.031,15.985c-0.679,2.042-1.906,5.265,0.757,8.596c2.74,3.428,10.389,4.366,14.89,0.613   c4.031-3.361,3.488-7.568,2.322-10.235c4-2,8.99-5.224,6.787-12.659c1.603-2.012,2.099-3.799,2.369-6.273   c2.197-0.461,4.298-1.469,6.084-3.055c3.765-3.34,5.165-8.362,4.133-13.04C79.951,38.04,79.568,27.991,73.392,21.032z    M30.41,15.316c8.385-8.263,21.882-8.163,30.143,0.221c0.135,0.135,0.262,0.28,0.391,0.418c-8.293-7.981-21.481-7.953-29.729,0.176   C22.965,24.26,22.74,37.446,30.6,45.856c-0.138-0.131-0.277-0.261-0.412-0.398C21.928,37.075,22.025,23.58,30.41,15.316z    M35.344,66.133C38.387,61.619,45.485,59.453,50,62.5c-4.49-2.863-11.224-0.508-14.217,3.93   c-2.995,4.441-1.891,10.441,2.444,13.533c-0.072-0.047-0.148-0.094-0.223-0.143C33.492,76.775,32.298,70.648,35.344,66.133z    M37.838,87.07C37.101,84.6,38.116,80,41.325,79c-3.117,1.013-3.898,5.673-3.175,8.101c0.732,2.432,4.684,4.9,8.017,4.733   C42.813,92.002,38.58,89.543,37.838,87.07z M53.794,79.275c0.947,0.969,1.588,2.771,1.712,4.097   c0.351,3.781-2.759,7.987-7.683,8.444c-0.079,0.008-0.159,0.012-0.239,0.018c4.806-0.545,7.559-4.61,7.214-8.329   c-0.118-1.293-0.984-2.731-1.857-3.716l-0.018-0.02c-1.637-1.844-4.324-3.035-7.458-2.807c3.184-0.293,6.546,0.506,8.304,2.285   c4.733-1.584,7.718-5.656,6.763-9.461c-1.007-3.988-5.967-6.189-11.152-4.994c0.082-0.021,0.168-0.047,0.253-0.07   c5.28-1.328,10.391,0.881,11.411,4.936C62.035,73.592,58.808,77.811,53.794,79.275z M62.133,64.227   c-0.037,0.094-0.081,0.186-0.119,0.279c2.105-5.742-0.732-12.146-6.45-14.418c-5.718-2.272-12.178,0.441-14.584,6.065   c0.036-0.096,0.069-0.191,0.105-0.285c2.308-5.812,8.893-8.654,14.704-6.346C61.601,51.83,64.439,58.414,62.133,64.227z    M39.956,38.595c-8.595,4.398-12.072,14.829-7.927,23.485c-0.077-0.139-0.154-0.275-0.229-0.418   c-4.472-8.734-1.017-19.444,7.719-23.918c8.736-4.472,19.443-1.014,23.915,7.721c0.074,0.142,0.139,0.288,0.207,0.431   C59.045,37.472,48.547,34.195,39.956,38.595z M64.262,59.494c-0.109,0.023-0.217,0.049-0.327,0.074   c6.523-1.881,10.53-8.057,8.986-13.946c-1.554-5.894-8.08-9.298-14.685-7.726c0.107-0.03,0.216-0.063,0.323-0.096   c6.714-1.763,13.44,1.661,15.013,7.647C75.145,51.436,70.977,57.727,64.262,59.494z M73.803,45.777   c4.245-8.875,2.873-21.952-6.318-26.665c-9.192-4.715-18.631-1.702-23.363,6.926c0.071-0.145,0.138-0.295,0.213-0.44   c4.59-8.953,14.25-12.15,23.597-7.358c9.342,4.792,10.697,18.155,6.106,27.107C73.963,45.494,73.88,45.635,73.803,45.777z"/><path d="M29.2,47.068c0.002-0.005,0.003-0.011,0.005-0.016C28.939,46.802,29.07,46.938,29.2,47.068z"/></g></svg>